<svg xmlns="http://www.w3.org/2000/svg" xmlns:xlink="http://www.w3.org/1999/xlink" width="228" height="210" viewBox="0 0 228 210">
    <defs>
        <path id="wcntxp3jta" d="M0 0.745L228 0.745 228 208.745 0 208.745z"/>
    </defs>
    <g fill="none" fill-rule="evenodd">
        <g>
            <g>
                <g transform="translate(-66 -210) translate(18 152) translate(48 58.255)">
                    <mask id="62x50o2m3b" fill="#fff">
                        <use xlink:href="#wcntxp3jta"/>
                    </mask>
                    <path fill="#D52525" d="M158.785 6.504l58.22 37.074-115.561 13.138L15.38 33.603 158.785 6.504zM104.04 62.058L222.38 48.605v141.163L104.04 176.8V62.06zM5.621 36.783L98.42 61.705v115.462L5.62 202.281V36.783zm221.855 157.735l.056-.077c.032-.049.061-.099.09-.15l.046-.077c.027-.051.052-.105.077-.16l.038-.08c.022-.054.041-.11.06-.165.01-.03.023-.058.032-.089.02-.062.035-.126.05-.19.015-.066.027-.132.037-.199.007-.044.016-.086.021-.131v-.007c.006-.049.006-.098.01-.147.002-.048.007-.097.007-.145V45.467v-.006c0-.087-.005-.173-.013-.259l-.01-.075c-.007-.058-.015-.115-.026-.173-.006-.032-.012-.064-.02-.096-.011-.052-.025-.102-.039-.153-.009-.03-.016-.061-.026-.091-.023-.073-.05-.144-.078-.214-.013-.032-.028-.062-.042-.093-.02-.044-.042-.089-.064-.132l-.05-.09c-.026-.046-.053-.09-.08-.133l-.049-.074c-.044-.063-.09-.125-.138-.184l-.008-.01c-.053-.064-.109-.124-.167-.184l-.05-.047c-.043-.041-.087-.081-.132-.12l-.07-.056c-.04-.033-.083-.064-.127-.095l-.08-.056-.028-.02-65.831-41.92c-.605-.385-1.333-.525-2.038-.392L2.287 30.376l-.017.004c-.04.008-.08.018-.12.028-.045.01-.089.021-.132.034-.041.012-.081.026-.121.04-.042.014-.084.029-.125.045l-.112.047-.127.061-.099.052c-.046.026-.09.053-.134.081l-.08.052c-.055.037-.108.077-.16.118-.013.012-.028.022-.042.033-.065.054-.127.11-.187.17l-.047.05c-.042.043-.084.088-.123.134l-.061.077c-.032.04-.063.08-.092.122l-.06.092-.075.12c-.019.034-.038.067-.055.101-.022.042-.042.084-.062.127l-.047.104c-.02.048-.036.097-.053.146-.01.032-.023.062-.033.094-.024.08-.045.16-.063.242l-.014.085c-.01.059-.02.117-.027.177-.004.032-.005.066-.008.099L0 33.02c0 .021.003.041 0 .062v172.861c0 .023.003.045.003.068.002.056.004.112.009.167.004.046.01.09.015.135.006.044.012.088.02.132.01.056.023.111.037.166.005.022.008.044.014.066l.014.043c.012.042.026.084.04.125.014.042.03.082.045.123l.045.11c.022.047.045.094.069.14l.041.081c.037.066.076.13.117.192l.013.02c.05.074.103.144.16.212 0 .002.003.004.005.006.052.063.106.122.163.18l.047.044c.044.043.09.085.136.124l.067.055c.043.033.086.066.13.097l.08.055c.044.028.09.055.135.081.028.016.055.034.084.049.07.037.14.071.214.103l.088.034c.05.019.1.038.15.054l.098.029c.052.015.104.028.157.04l.09.019c.064.012.129.022.193.03l.061.007c.089.008.179.014.269.014.087 0 .174-.006.262-.014l.052-.005c.08-.01.162-.02.243-.037.019-.004.038-.01.057-.013.041-.01.083-.018.124-.03l97.905-26.496 123.43 13.528h.01c.01.002.021.002.032.003.09.009.18.014.269.014.093 0 .186-.006.278-.015l.053-.007c.072-.009.143-.019.214-.033.031-.006.062-.015.093-.022.055-.013.11-.026.164-.042.037-.011.073-.024.11-.037.046-.016.092-.032.138-.05l.114-.05c.041-.02.083-.038.123-.06.038-.019.075-.04.112-.06l.115-.07.104-.07.112-.083.092-.075c.037-.032.073-.065.109-.1l.08-.076c.036-.038.071-.077.106-.117.022-.025.045-.05.066-.077.035-.043.068-.088.1-.133z" mask="url(#62x50o2m3b)"/>
                </g>
            </g>
        </g>
    </g>
</svg>
