<svg xmlns="http://www.w3.org/2000/svg" xmlns:xlink="http://www.w3.org/1999/xlink" width="228" height="240" viewBox="0 0 228 240">
    <defs>
        <path id="dwmreul9ja" d="M0 0.761L228 0.761 228 239.761 0 239.761z"/>
    </defs>
    <g fill="none" fill-rule="evenodd">
        <g>
            <g>
                <g transform="translate(-63 -206) translate(18 152) translate(45 54)">
                    <mask id="m8llv71g2b" fill="#fff">
                        <use xlink:href="#dwmreul9ja"/>
                    </mask>
                    <path class="cube_path" fill="#000" d="M155.833 8.122v42.435l-54.29 6.206-83.319-22.497 137.61-26.144zm6.661 41.674V10.2l52.478 33.598-52.478 5.998zm0 133.575V56.512l58.845-6.726v140.069l-58.845-6.484zm0 6.713l52.57 5.792-52.57 34.385v-40.177zm-60.941-6.715l54.28 5.98v43.041L18.126 206.07l83.427-22.7zm3.067-120.242l51.213-5.854v125.364l-51.213-5.643V63.127zM6.66 38.055L97.96 62.706v114.726L6.66 202.274V38.054zM228 193.585V46.047v-.01-.048c-.003-.063-.005-.125-.01-.187l-.004-.056c-.007-.076-.016-.152-.028-.227l-.002-.01c-.012-.079-.028-.156-.046-.233l-.004-.014c-.059-.246-.145-.482-.256-.703 0-.003-.002-.005-.003-.007-.037-.074-.076-.147-.119-.217-.04-.068-.083-.133-.127-.196l-.026-.037c-.044-.06-.089-.121-.137-.18-.004-.004-.01-.01-.013-.015-.044-.052-.09-.103-.137-.153l-.04-.042c-.05-.052-.103-.102-.156-.15l-.036-.031c-.054-.047-.109-.092-.165-.136l-.017-.013c-.064-.048-.13-.094-.199-.138l-.012-.009L161.164 1.43c-.557-.42-1.25-.668-2-.668h-.004c-.212 0-.424.018-.635.058L2.71 30.422l-.005.001c-.092.018-.182.039-.271.064-.004 0-.008.002-.011.003-.267.075-.52.183-.754.319l-.03.017c-.07.041-.139.086-.205.132l-.037.026c-.066.047-.13.096-.193.148l-.02.018c-.06.05-.117.102-.172.156l-.025.024c-.057.056-.112.115-.164.176l-.03.034c-.052.061-.103.125-.15.19l-.018.026c-.102.14-.192.29-.27.446l-.009.016c-.038.078-.074.157-.106.238l-.008.021c-.066.168-.12.342-.158.522l-.001.007c-.018.085-.032.171-.044.259l-.005.038c-.01.084-.017.17-.02.255 0 .005-.001.01-.004.015 0 .01.003.019.002.028C0 33.634 0 33.667 0 33.7v172.932c0 .096.004.192.012.29l.003.026c.008.087.02.173.035.26l.009.048c.014.076.03.152.05.228.034.127.076.251.124.373.13.334.31.638.529.904l.02.023c.052.062.106.123.163.18.018.02.038.037.056.055.046.045.093.09.141.132.028.025.058.048.088.072.04.033.081.066.123.097.036.027.073.052.11.077.039.026.077.052.116.076.04.025.081.048.123.072l.119.064.124.06c.044.02.089.04.134.058.039.016.078.03.118.045.052.02.105.037.159.053l.102.03c.063.018.128.032.193.046.019.004.036.01.055.013l155.833 29.787h.006l.042.008c.05.008.098.016.148.022l.05.007.154.014.031.002c.066.004.132.007.197.007.032 0 .062-.004.093-.005.054-.001.107-.003.16-.007.046-.003.09-.009.136-.014.042-.005.084-.01.126-.017.045-.007.09-.016.135-.025.043-.008.085-.018.127-.028.042-.01.084-.02.126-.032.048-.014.094-.03.141-.045.036-.012.071-.022.107-.035.077-.03.155-.06.23-.096.011-.004.022-.01.032-.015.072-.034.143-.07.213-.11l.074-.044c.039-.023.079-.046.117-.07l65.506-42.846c.053-.035.104-.071.155-.108l.01-.008c.073-.054.142-.111.21-.17l.046-.043c.056-.05.11-.103.161-.157l.036-.036c.059-.064.115-.13.168-.197.016-.02.032-.04.047-.062.039-.05.076-.102.111-.155l.049-.074c.043-.068.084-.138.122-.209l.043-.085c.026-.053.05-.106.074-.16l.039-.09c.03-.077.058-.155.084-.234l.02-.073c.02-.07.039-.14.055-.211l.014-.064c.018-.09.032-.183.043-.275l.003-.018.01-.114c0-.016.003-.032.004-.048.004-.066.006-.132.006-.197z" mask="url(#m8llv71g2b)"/>
                </g>
            </g>
        </g>
    </g>
</svg>
