<svg xmlns="http://www.w3.org/2000/svg" xmlns:xlink="http://www.w3.org/1999/xlink" width="262" height="38" viewBox="0 0 262 38">
    <defs>
        <path id="s3z1m8v7ea" d="M0.091 0.135L35.424 0.135 35.424 35.085 0.091 35.085z"/>
    </defs>
    <g fill="none" fill-rule="evenodd">
        <g>
            <g>
                <g>
                    <path fill="#FFF" d="M63.821 0L72.56 0 86.464 17.467 86.464 0 95.731 0 95.731 33.043 87.525 33.043 73.089 14.918 73.089 33.043 63.821 33.043z" transform="translate(-49 -178) translate(47 145) translate(2 33)"/>
                    <g>
                        <path fill="#FFF" d="M105.447 29.257l5.23-6.179c3.342 2.634 7.071 4.024 10.993 4.024 2.519 0 3.874-.863 3.874-2.299v-.095c0-1.388-1.113-2.157-5.714-3.21-7.215-1.628-12.783-3.64-12.783-10.536v-.098c0-6.227 4.987-10.73 13.12-10.73 5.765 0 10.268 1.533 13.947 4.456l-4.696 6.563c-3.1-2.157-6.49-3.306-9.49-3.306-2.276 0-3.39.958-3.39 2.155v.097c0 1.533 1.162 2.202 5.857 3.256 7.798 1.676 12.639 4.167 12.639 10.444v.093c0 6.85-5.472 10.922-13.702 10.922-6.005 0-11.721-1.867-15.885-5.557M145.803 8.939L135.735 8.939 135.735.877 165.168.877 165.168 8.939 155.103 8.939 155.103 34.071 145.803 34.071zM183.846 20.982l-3.74-9.436-3.787 9.436h7.527zM175.695.64h8.967l14.284 33.432h-9.972l-2.444-5.93h-12.944l-2.397 5.93h-9.779L175.695.64zM230.586 17v12.613c-3.55 2.895-8.487 5.123-14.573 5.123-10.45 0-18.266-7.114-18.266-17.167v-.095c0-9.673 7.67-17.261 18.073-17.261 5.898 0 10.066 1.802 13.615 4.838l-5.466 6.496c-2.397-1.992-4.794-3.13-8.1-3.13-4.843 0-8.581 4.03-8.581 9.105v.095c0 5.358 3.786 9.2 9.109 9.2 2.25 0 3.977-.474 5.37-1.376V17h8.819zM234.852.877L261.604.877 261.604 8.701 244.056 8.701 244.056 13.729 259.924 13.729 259.924 20.984 244.056 20.984 244.056 26.248 261.843 26.248 261.843 34.071 234.852 34.071zM.769 8.196l-.435.027C.146 8.235 0 8.39 0 8.575v4.783c0 .194.16.352.356.352H7.62c.197 0 .357.158.357.353V34.51c0 .194.16.352.356.352h8.491c.197 0 .357-.158.357-.352V1.372c0-.195-.16-.353-.357-.353H9.99c-.166 0-.308.114-.347.274C8.393 6.443 5.161 7.916.77 8.196M49.33 25.01c-1.909 1.888-4.447 2.928-7.146 2.928-2.7 0-5.238-1.04-7.147-2.928-1.909-1.888-2.96-4.399-2.96-7.07 0-2.67 1.051-5.18 2.96-7.068 1.909-1.889 4.447-2.93 7.147-2.93s5.237 1.041 7.146 2.93c1.91 1.887 2.96 4.398 2.96 7.068 0 2.671-1.05 5.182-2.96 7.07m1.175-15.301c-2.223-2.199-5.178-3.41-8.321-3.41-3.144 0-6.099 1.211-8.322 3.41-2.223 2.199-3.447 5.122-3.447 8.231 0 3.11 1.224 6.033 3.447 8.232 2.223 2.199 5.178 3.41 8.322 3.41 3.143 0 6.099-1.211 8.321-3.41 2.223-2.199 3.447-5.122 3.447-8.232 0-3.109-1.224-6.032-3.447-8.231" transform="translate(-49 -178) translate(47 145) translate(2 33)"/>
                        <path fill="#FFF" d="M50.93 26.592c-2.337 2.31-5.443 3.583-8.746 3.583-3.304 0-6.41-1.273-8.746-3.583-2.336-2.311-3.623-5.384-3.623-8.651 0-3.268 1.287-6.34 3.623-8.651 2.336-2.311 5.442-3.584 8.746-3.584 3.303 0 6.41 1.273 8.745 3.584 2.336 2.31 3.623 5.382 3.623 8.65 0 3.268-1.287 6.341-3.623 8.652M52.1 8.133c-2.65-2.62-6.17-4.062-9.915-4.062-3.745 0-7.266 1.443-9.915 4.062-2.648 2.62-4.107 6.103-4.107 9.808 0 3.704 1.459 7.187 4.107 9.807 2.649 2.62 6.17 4.062 9.915 4.062 3.745 0 7.266-1.443 9.914-4.062 2.648-2.62 4.107-6.103 4.107-9.807 0-3.705-1.459-7.188-4.107-9.808" transform="translate(-49 -178) translate(47 145) translate(2 33)"/>
                        <path fill="#FFF" d="M42.184 23.871c-3.311 0-5.996-2.655-5.996-5.93 0-3.276 2.685-5.93 5.996-5.93 3.31 0 5.995 2.654 5.995 5.93 0 3.275-2.684 5.93-5.995 5.93M47.32 12.86c-1.372-1.357-3.196-2.104-5.136-2.104s-3.764.747-5.136 2.104c-1.372 1.357-2.128 3.161-2.128 5.08 0 1.92.756 3.724 2.128 5.081 1.372 1.357 3.196 2.104 5.136 2.104s3.764-.747 5.136-2.104c1.372-1.357 2.127-3.161 2.127-5.08 0-1.92-.755-3.724-2.127-5.081" transform="translate(-49 -178) translate(47 145) translate(2 33)"/>
                        <path fill="#FFF" d="M52.528 28.173c-2.763 2.733-6.437 4.239-10.344 4.239-3.908 0-7.582-1.506-10.345-4.239-2.763-2.733-4.285-6.367-4.285-10.233 0-3.865 1.522-7.499 4.285-10.232 2.763-2.733 6.437-4.239 10.345-4.239 3.907 0 7.581 1.506 10.344 4.24 2.763 2.732 4.285 6.366 4.285 10.231 0 3.866-1.522 7.5-4.285 10.233m1.163-21.615c-3.074-3.04-7.16-4.715-11.507-4.715-4.347 0-8.434 1.674-11.508 4.715-3.073 3.04-4.766 7.083-4.766 11.382 0 4.3 1.693 8.343 4.766 11.383 3.074 3.04 7.16 4.716 11.508 4.716 4.346 0 8.433-1.675 11.507-4.716 3.074-3.04 4.767-7.082 4.767-11.383 0-4.3-1.693-8.342-4.767-11.382" transform="translate(-49 -178) translate(47 145) translate(2 33)"/>
                        <g transform="translate(-49 -178) translate(47 145) translate(2 33) translate(24.427 .331)">
                            <mask id="1olmhiegyb" fill="#fff">
                                <use xlink:href="#s3z1m8v7ea"/>
                            </mask>
                            <path fill="#FFF" d="M29.7 29.424c-3.19 3.155-7.431 4.893-11.943 4.893S9.004 32.58 5.814 29.424C2.624 26.268.866 22.073.866 17.609c0-4.462 1.757-8.658 4.948-11.814C9.004 2.64 13.246.902 17.757.902c4.512 0 8.753 1.738 11.944 4.893 3.19 3.156 4.947 7.351 4.947 11.814 0 4.464-1.757 8.66-4.947 11.815M17.757.134C8 .135.091 7.959.091 17.61.09 27.26 8 35.085 17.757 35.085c9.757 0 17.667-7.824 17.667-17.475 0-9.652-7.91-17.475-17.667-17.475" mask="url(#1olmhiegyb)"/>
                        </g>
                        <path fill="#FFF" d="M47.731 23.428c-1.481 1.466-3.451 2.273-5.547 2.273-2.096 0-4.066-.807-5.548-2.273-1.482-1.465-2.298-3.414-2.298-5.488 0-2.072.816-4.021 2.298-5.487 1.482-1.466 3.452-2.273 5.548-2.273 2.095 0 4.065.807 5.547 2.273 1.482 1.466 2.299 3.414 2.299 5.487 0 2.074-.817 4.023-2.299 5.488m1.181-12.144c-1.797-1.777-4.187-2.757-6.728-2.757-2.542 0-4.932.98-6.73 2.757-1.797 1.779-2.786 4.142-2.786 6.656 0 2.515.99 4.879 2.787 6.657 1.797 1.778 4.187 2.757 6.729 2.757s4.931-.98 6.729-2.757c1.797-1.778 2.787-4.142 2.787-6.657 0-2.514-.99-4.877-2.788-6.656" transform="translate(-49 -178) translate(47 145) translate(2 33)"/>
                        <path fill="#FFF" d="M42.184 16.868c-.6 0-1.084.48-1.084 1.073 0 .592.485 1.072 1.084 1.072.599 0 1.084-.48 1.084-1.072 0-.593-.485-1.073-1.084-1.073" transform="translate(-49 -178) translate(47 145) translate(2 33)"/>
                    </g>
                </g>
            </g>
        </g>
    </g>
</svg>
