<?xml version="1.0" encoding="utf-8"?><svg width="629" height="387" viewBox="0 0 629 387" xmlns="http://www.w3.org/2000/svg" xmlns:xlink="http://www.w3.org/1999/xlink"><svg width="164" height="164" viewBox="-4 -4 164 164" id="src--sprite--common--circle1" x="465" xmlns="http://www.w3.org/2000/svg"><g transform="translate(1 1)" fill="none" fill-rule="evenodd"><circle cx="77" cy="77" r="77" stroke="#FFF"/><circle cx="77" cy="77" r="71" stroke="#FFF" opacity=".7"/><circle cx="77" cy="77" r="65" stroke="#FFF" opacity=".4"/><circle cx="77" cy="77" r="59" stroke="#FFF" opacity=".2"/><circle cx="77" cy="77" r="3" fill="#FFF"/></g></svg><svg width="260" height="260" viewBox="-4 -4 260 260" id="src--sprite--common--circle2" y="77" xmlns="http://www.w3.org/2000/svg"><g transform="translate(1 1)" stroke="#FFF" fill="none" fill-rule="evenodd"><circle cx="125" cy="125" r="125"/><circle cx="125" cy="125" r="115" opacity=".7"/><circle cx="125" cy="125" r="105" opacity=".4"/><circle cx="125" cy="125" r="95" opacity=".2"/></g></svg><svg width="190" height="190" viewBox="-4 -4 190 190" id="src--sprite--common--circle3" x="275" xmlns="http://www.w3.org/2000/svg"><g transform="translate(1 1)" stroke="#FFF" fill="none" fill-rule="evenodd"><circle cx="90" cy="90" r="90"/><circle cx="90" cy="90" r="83" opacity=".7"/><circle cx="90.5" cy="90.5" r="75.5" opacity=".4"/><circle cx="90.5" cy="90.5" r="68.5" opacity=".2"/></g></svg><svg width="275" height="31" viewBox="-4 -4 275 31" id="src--sprite--common--event_title" xmlns="http://www.w3.org/2000/svg"><defs><path id="da" d="M0 22.829h266.187V0H0z"/></defs><g fill="none" fill-rule="evenodd"><path fill="#FEFEFE" d="M6.995 6.968h7.514c1.715 0 2.548-.832 2.548-1.976 0-1.118-.833-1.95-2.548-1.95H6.995c-1.587 0-2.549.832-2.549 1.95 0 1.144.832 1.976 2.55 1.976zm13.65 12.454v3.042H1.093v-6.37h3.458v3.328h16.094zm-6.11-9.568H12.35v1.872h9.153v3.016H0v-3.016h8.892V9.854H6.97c-3.9 0-6.11-1.872-6.11-4.862C.858 2.236 3.068.13 6.968.13h7.566c3.926 0 6.11 2.106 6.11 4.862 0 2.99-2.184 4.862-6.11 4.862z"/><mask id="db" fill="#fff"><use xlink:href="#da"/></mask><path fill="#FEFEFE" d="M23.4 21.737h21.502v-3.172H23.4v3.172zm1.976-8.216l-2.106-2.678C28.393 9.022 31.902 5.018 32.786 0l3.588.599a13.781 13.781 0 01-1.04 3.483c2.393 2.783 5.851 4.889 9.699 5.877L43.16 12.74c-3.691-.988-7.046-3.068-9.515-5.668-2.081 2.938-5.071 5.277-8.269 6.448zm38.325 9.075h3.38V.13h-3.38v22.465zM61.881.234v22.1h-3.355V12.35h-2.157V9.049h2.157V.234h3.355zm-5.305 18.253v3.12h-8.918V.494h8.347V3.64h-5.07v5.512h4.549v3.12h-4.549v6.214h5.641zm30.472 4.109h3.432V.13h-3.432v22.465zM74.126 7.099v7.93c0 2.522 1.014 3.693 2.834 3.693 1.846 0 2.86-1.171 2.86-3.693v-7.93c0-2.497-1.014-3.693-2.86-3.693-1.82 0-2.834 1.196-2.834 3.693zm-3.302 7.93v-7.93c0-4.447 2.444-6.865 6.136-6.865 3.744 0 6.188 2.418 6.188 6.865v7.93c0 4.42-2.444 6.812-6.188 6.812-3.692 0-6.136-2.392-6.136-6.812zm39.625 7.567h3.432V.13h-3.432v22.465zM94.458.494h12.48V3.64h-4.914c-.051 1.95-.181 3.822-.467 5.616 1.351 3.848 3.691 7.618 6.681 10.296l-2.651 2.184c-2.08-2.028-3.874-4.654-5.227-7.332-.883 2.73-2.158 5.252-3.822 7.514l-3.068-1.664c3.562-4.862 5.018-9.932 5.122-16.614h-4.134V.494z" mask="url(#db)"/><path fill="#FAE923" d="M128.335 20.748h-3.432V4.16h-1.95V.988h5.382zm11.285-4.992V5.98c0-1.327-.807-2.08-2.055-2.08-1.3 0-2.054.753-2.054 2.08v9.776c0 1.353.754 2.08 2.054 2.08 1.248 0 2.054-.727 2.054-2.08m3.432-10.01v10.27c0 3.016-1.95 4.967-5.486 4.967-3.562 0-5.512-1.95-5.512-4.967V5.746c0-3.068 1.95-5.018 5.512-5.018 3.536 0 5.486 1.95 5.486 5.018m23.426 8.294v3.172h-8.917v5.616h-3.667v-5.616h-8.918v-3.171h21.502zm-19.89-1.82l-1.612-2.808c3.927-.702 7.28-2.756 8.945-5.772h-7.852V.494h19.317V3.64h-7.565c-.208.467-.416.937-.677 1.403 2.367 1.898 5.93 3.251 9.334 3.746L164.97 11.7c-3.458-.546-7.177-2.08-9.698-4.16-2.262 2.391-5.435 4.056-8.685 4.68zM188.655.13v16.64h-3.433V9.153h-6.967V6.318h6.967V4.784h-6.967V1.95h6.967V.13h3.433zm.364 19.189v3.145h-19.058V15.08h3.458v4.238h15.6zm-6.709-8.79v2.914h-13.078V.493h3.458V10.53h9.62z" mask="url(#db)"/><path fill="#FEFEFE" d="M214.732 22.596h3.433V.13h-3.433v22.465zM201.811 7.099v7.93c0 2.522 1.013 3.693 2.834 3.693 1.845 0 2.86-1.171 2.86-3.693v-7.93c0-2.497-1.015-3.693-2.86-3.693-1.821 0-2.834 1.196-2.834 3.693zm-3.303 7.93v-7.93c0-4.447 2.444-6.865 6.137-6.865 3.744 0 6.188 2.418 6.188 6.865v7.93c0 4.42-2.444 6.812-6.188 6.812-3.693 0-6.137-2.392-6.137-6.812zm39.755 1.351h3.302V.13h-3.302v16.25zm-12.975-5.537h2.782V7.15h-2.782v3.692zm16.771 8.476v3.146H222.87v-7.15h3.458v4.004h15.731zM231.242.494V5.72h2.106V.234h3.224v15.783h-3.224v-7.28h-2.106v4.966h-9.1V.493h3.146v3.823h2.782V.494h3.172zm17.992 3.016v2.808h15.86v2.964h-15.86v2.99h16.095v3.016h-19.553V.493h19.318V3.51h-15.86zm-4.55 18.227h21.502v-3.146h-21.503v3.146z" mask="url(#db)"/></g></svg><svg width="270" height="46" viewBox="-4 -4 270 46" id="src--sprite--common--logo" y="31" xmlns="http://www.w3.org/2000/svg"><defs><path id="ea" d="M.091.135h35.333v34.95H.091z"/></defs><g fill="none" fill-rule="evenodd"><path fill="#FFF" d="M63.821 0h8.739l13.904 17.467V0h9.267v33.043h-8.206L73.089 14.918v18.125h-9.268zM105.447 29.257l5.23-6.179c3.342 2.634 7.071 4.024 10.993 4.024 2.519 0 3.874-.863 3.874-2.299v-.095c0-1.388-1.113-2.157-5.714-3.21-7.215-1.628-12.783-3.64-12.783-10.536v-.098c0-6.227 4.987-10.73 13.12-10.73 5.765 0 10.268 1.533 13.947 4.456l-4.696 6.563c-3.1-2.157-6.49-3.306-9.49-3.306-2.276 0-3.39.958-3.39 2.155v.097c0 1.533 1.162 2.202 5.857 3.256 7.798 1.676 12.639 4.167 12.639 10.444v.093c0 6.85-5.472 10.922-13.702 10.922-6.005 0-11.721-1.867-15.885-5.557m40.356-20.318h-10.068V.877h29.433v8.062h-10.065v25.132h-9.3zm38.043 12.043l-3.74-9.436-3.787 9.436h7.527zM175.695.64h8.967l14.284 33.432h-9.972l-2.444-5.93h-12.944l-2.397 5.93h-9.779L175.695.64zM230.586 17v12.613c-3.55 2.895-8.487 5.123-14.573 5.123-10.45 0-18.266-7.114-18.266-17.167v-.095c0-9.673 7.67-17.261 18.073-17.261 5.898 0 10.066 1.802 13.615 4.838l-5.466 6.496c-2.397-1.992-4.794-3.13-8.1-3.13-4.843 0-8.581 4.03-8.581 9.105v.095c0 5.358 3.786 9.2 9.109 9.2 2.25 0 3.977-.474 5.37-1.376V17h8.819zM234.852.877h26.752v7.824h-17.548v5.028h15.868v7.255h-15.868v5.264h17.787v7.823h-26.991zM.769 8.196l-.435.027A.355.355 0 000 8.575v4.783c0 .194.16.352.356.352H7.62c.197 0 .357.158.357.353V34.51c0 .194.16.352.356.352h8.491a.355.355 0 00.357-.352V1.372a.355.355 0 00-.357-.353H9.99a.357.357 0 00-.347.274C8.393 6.443 5.161 7.916.77 8.196M49.33 25.01a10.097 10.097 0 01-7.146 2.928c-2.7 0-5.238-1.04-7.147-2.928a9.878 9.878 0 01-2.96-7.07c0-2.67 1.051-5.18 2.96-7.068 1.909-1.889 4.447-2.93 7.147-2.93s5.237 1.041 7.146 2.93a9.869 9.869 0 012.96 7.068 9.874 9.874 0 01-2.96 7.07m1.175-15.301a11.756 11.756 0 00-8.321-3.41 11.756 11.756 0 00-8.322 3.41 11.501 11.501 0 00-3.447 8.231c0 3.11 1.224 6.033 3.447 8.232a11.756 11.756 0 008.322 3.41c3.143 0 6.099-1.211 8.321-3.41a11.502 11.502 0 003.447-8.232c0-3.109-1.224-6.032-3.447-8.231"/><path fill="#FFF" d="M50.93 26.592a12.362 12.362 0 01-8.746 3.583c-3.304 0-6.41-1.273-8.746-3.583a12.09 12.09 0 01-3.623-8.651c0-3.268 1.287-6.34 3.623-8.651a12.355 12.355 0 018.746-3.584c3.303 0 6.41 1.273 8.745 3.584a12.085 12.085 0 013.623 8.65c0 3.268-1.287 6.341-3.623 8.652M52.1 8.133a14.01 14.01 0 00-9.915-4.062 14.012 14.012 0 00-9.915 4.062c-2.648 2.62-4.107 6.103-4.107 9.808 0 3.704 1.459 7.187 4.107 9.807a14.008 14.008 0 009.915 4.062c3.745 0 7.266-1.443 9.914-4.062 2.648-2.62 4.107-6.103 4.107-9.807 0-3.705-1.459-7.188-4.107-9.808"/><path fill="#FFF" d="M42.184 23.871c-3.311 0-5.996-2.655-5.996-5.93 0-3.276 2.685-5.93 5.996-5.93 3.31 0 5.995 2.654 5.995 5.93 0 3.275-2.684 5.93-5.995 5.93M47.32 12.86c-1.372-1.357-3.196-2.104-5.136-2.104s-3.764.747-5.136 2.104a7.098 7.098 0 00-2.128 5.08c0 1.92.756 3.724 2.128 5.081 1.372 1.357 3.196 2.104 5.136 2.104s3.764-.747 5.136-2.104a7.097 7.097 0 002.127-5.08c0-1.92-.755-3.724-2.127-5.081"/><path fill="#FFF" d="M52.528 28.173a14.616 14.616 0 01-10.344 4.239c-3.908 0-7.582-1.506-10.345-4.239-2.763-2.733-4.285-6.367-4.285-10.233 0-3.865 1.522-7.499 4.285-10.232 2.763-2.733 6.437-4.239 10.345-4.239 3.907 0 7.581 1.506 10.344 4.24 2.763 2.732 4.285 6.366 4.285 10.231 0 3.866-1.522 7.5-4.285 10.233m1.163-21.615c-3.074-3.04-7.16-4.715-11.507-4.715-4.347 0-8.434 1.674-11.508 4.715-3.073 3.04-4.766 7.083-4.766 11.382 0 4.3 1.693 8.343 4.766 11.383 3.074 3.04 7.16 4.716 11.508 4.716 4.346 0 8.433-1.675 11.507-4.716 3.074-3.04 4.767-7.082 4.767-11.383 0-4.3-1.693-8.342-4.767-11.382"/><g transform="translate(24.427 .331)"><mask id="eb" fill="#fff"><use xlink:href="#ea"/></mask><path fill="#FFF" d="M29.7 29.424c-3.19 3.155-7.431 4.893-11.943 4.893S9.004 32.58 5.814 29.424C2.624 26.268.866 22.073.866 17.609c0-4.462 1.757-8.658 4.948-11.814C9.004 2.64 13.246.902 17.757.902c4.512 0 8.753 1.738 11.944 4.893 3.19 3.156 4.947 7.351 4.947 11.814 0 4.464-1.757 8.66-4.947 11.815M17.757.134C8 .135.091 7.959.091 17.61.09 27.26 8 35.085 17.757 35.085c9.757 0 17.667-7.824 17.667-17.475 0-9.652-7.91-17.475-17.667-17.475" mask="url(#eb)"/></g><path fill="#FFF" d="M47.731 23.428a7.833 7.833 0 01-5.547 2.273 7.837 7.837 0 01-5.548-2.273 7.665 7.665 0 01-2.298-5.488c0-2.072.816-4.021 2.298-5.487a7.837 7.837 0 015.548-2.273c2.095 0 4.065.807 5.547 2.273a7.667 7.667 0 012.299 5.487 7.666 7.666 0 01-2.299 5.488m1.181-12.144a9.509 9.509 0 00-6.728-2.757c-2.542 0-4.932.98-6.73 2.757a9.303 9.303 0 00-2.786 6.656c0 2.515.99 4.879 2.787 6.657 1.797 1.778 4.187 2.757 6.729 2.757s4.931-.98 6.729-2.757A9.303 9.303 0 0051.7 17.94c0-2.514-.99-4.877-2.788-6.656"/><path fill="#FFF" d="M42.184 16.868c-.6 0-1.084.48-1.084 1.073 0 .592.485 1.072 1.084 1.072.599 0 1.084-.48 1.084-1.072 0-.593-.485-1.073-1.084-1.073"/></g></svg><svg width="110" height="50" viewBox="-4 -4 110 50" id="src--sprite--common--tab1" x="275" y="253" xmlns="http://www.w3.org/2000/svg"><defs><path id="fa" d="M0 0h100v40H0z"/></defs><g transform="translate(1 1)" fill="none" fill-rule="evenodd"><mask id="fb" fill="#fff"><use xlink:href="#fa"/></mask><use fill="#FFF" stroke="#7E7E7E" stroke-width="2" xlink:href="#fa"/><g fill="#000" mask="url(#fb)"><path d="M28 27h2V13h-2zm3-14v2.233h2.715V27h2.407V15.233H39V13zm9 0v14h7v-2.229h-4.763v-3.905h3.966v-2.248h-3.966v-3.371h4.441V13zm15.545 0L53 20.35 50.455 13H48v14h2.382v-5.526l-.144-3.463 1.859 6.41h1.715l1.931-6.429-.126 3.482V27H58V13z" opacity=".208"/><path d="M66.462 13L63 27h2.746l.58-2.91h3.328l.6 2.91H73l-3.443-14h-3.095zm.793 6.534l.736-3.972.734 3.917.484 2.379h-2.418l.464-2.324z" opacity=".214"/></g></g></svg><svg width="120" height="63" viewBox="-4 -4 120 63" id="src--sprite--common--tab1_active" x="465" y="164" xmlns="http://www.w3.org/2000/svg"><defs><radialGradient id="gb" cx="12.36%" cy="0%" r="204.682%" fx="12.36%" fy="0%" gradientTransform="matrix(.39083 .50505 -.2287 .86309 .075 -.062)"><stop offset="0%" stop-color="#FFBD72"/><stop offset="100%" stop-color="#FF683A"/></radialGradient><path id="ga" d="M0 0h106v48H0z"/></defs><g fill="none" fill-rule="evenodd"><path fill="#000" d="M56 55c46.396 0 56-1.397 56-5.5S86.928 44 56 44 0 44 0 49.5 9.604 55 56 55z" opacity=".143"/><g transform="translate(2 1)"><mask id="gc" fill="#fff"><use xlink:href="#ga"/></mask><use fill="url(#gb)" stroke="#000" stroke-width="2" xlink:href="#ga"/><path fill="#702222" d="M109.126-1.882c-5.155 3.333-8.273 7.314-9.352 11.942-1.62 6.94.71 29.94-7.607 31.94-4.345 1.045-28.82 1.802-51.91 2-21.115.181-41.086-.455-43.13 5.44C-7.154 61.783 98.612 61.294 102.37 59c3.756-2.294 8.606-4.44 8.681-7 .05-1.706 1.92-17.549 5.607-47.526L111.05-2l-1.925.118z" mask="url(#gc)" opacity=".11"/></g><path d="M28 33h3V17h-3zm5-16v2.552h3.054V33h2.708V19.552H42V17zm11 0v16h9v-2.547h-6.124V25.99h5.1v-2.569h-5.1v-3.852h5.71V17zm20.053 0L61 25.4 57.946 17H55v16h2.858v-6.315l-.172-3.958 2.231 7.326h2.057l2.318-7.347-.151 3.979V33H67V17zm10.755 1L71 34h3.02l.64-3.325h3.659l.66 3.325H82l-3.787-16h-3.405zm.872 7.467l.81-4.539.808 4.476.532 2.72h-2.66l.51-2.657z" fill="#FEFEFE"/></g></svg><svg width="110" height="50" viewBox="-4 -4 110 50" id="src--sprite--common--tab2" y="337" xmlns="http://www.w3.org/2000/svg"><defs><path id="ha" d="M0 0h100v40H0z"/></defs><g transform="translate(1 1)" fill="none" fill-rule="evenodd"><mask id="hb" fill="#fff"><use xlink:href="#ha"/></mask><use fill="#FFF" stroke="#7E7E7E" stroke-width="2" xlink:href="#ha"/><g fill="#000" mask="url(#hb)" opacity=".208"><path d="M28 27h2V13h-2zm3-14v2.233h2.715V27h2.407V15.233H39V13zm9 0v14h7v-2.229h-4.763v-3.905h3.966v-2.248h-3.966v-3.371h4.441V13zm15.545 0L53 20.35 50.455 13H48v14h2.382v-5.526l-.144-3.463 1.859 6.41h1.715l1.931-6.429-.126 3.482V27H58V13zM66.27 24.771h1.446c1.29 0 1.996-.7 1.996-1.86 0-1.216-.706-1.953-1.996-1.953H66.27v3.813zm1.377-9.524h-1.376v3.463h1.324c1.153 0 1.79-.736 1.79-1.805 0-1.068-.637-1.658-1.738-1.658zM64 27V13h3.87c2.495 0 3.803 1.492 3.803 3.63 0 1.656-.791 2.707-1.72 3.186C71.277 20.37 72 21.473 72 23.26c0 2.248-1.462 3.74-3.888 3.74H64z"/></g></g></svg><svg width="120" height="63" viewBox="-4 -4 120 63" id="src--sprite--common--tab2_active" x="465" y="227" xmlns="http://www.w3.org/2000/svg"><defs><linearGradient id="ib" x1="12.36%" x2="92.356%" y1="39.747%" y2="60.945%"><stop offset="0%" stop-color="#FFBD72"/><stop offset="100%" stop-color="#FF683A"/></linearGradient><path id="ia" d="M0 0h106v48H0z"/></defs><g fill="none" fill-rule="evenodd"><path fill="#000" d="M56 55c46.396 0 56-1.397 56-5.5S86.928 44 56 44 0 44 0 49.5 9.604 55 56 55z" opacity=".143"/><g transform="translate(3 1)"><mask id="ic" fill="#fff"><use xlink:href="#ia"/></mask><use fill="url(#ib)" stroke="#000" stroke-width="2" xlink:href="#ia"/><path fill="#702222" d="M109.126-1.882c-5.155 3.333-8.273 7.314-9.352 11.942-1.62 6.94.71 29.94-7.607 31.94-4.345 1.045-28.82 1.802-51.91 2-21.115.181-41.086-.455-43.13 5.44C-7.154 61.783 98.612 61.294 102.37 59c3.756-2.294 8.606-4.44 8.681-7 .05-1.706 1.92-17.549 5.607-47.526L111.05-2l-1.925.118z" mask="url(#ic)" opacity=".11"/></g><path d="M29 33h3V17h-3zm5-16v2.552h3.054V33h2.708V19.552H43V17zm11 0v16h9v-2.547h-6.124V25.99h5.1v-2.569h-5.1v-3.852h5.71V17zm20.053 0L62 25.4 58.946 17H56v16h2.858v-6.315l-.172-3.958 2.231 7.326h2.057l2.318-7.347-.151 3.979V33H68V17zm10.785 13.453h1.807c1.613 0 2.495-.8 2.495-2.127 0-1.39-.882-2.23-2.495-2.23h-1.807v4.357zm1.72-10.884h-1.72v3.957h1.656c1.441 0 2.237-.842 2.237-2.063 0-1.22-.796-1.894-2.172-1.894zM73 33V17h4.838c3.119 0 4.753 1.705 4.753 4.148 0 1.894-.989 3.094-2.15 3.642 1.656.63 2.559 1.894 2.559 3.936C83 31.295 81.172 33 78.14 33H73z" fill="#FEFEFE"/></g></svg><svg width="110" height="50" viewBox="-4 -4 110 50" id="src--sprite--common--tab3" x="110" y="337" xmlns="http://www.w3.org/2000/svg"><defs><path id="ja" d="M0 0h100v40H0z"/><path id="jb" d="M.717.154h7.437v13.684H.717z"/></defs><g fill="none" fill-rule="evenodd"><use fill="#FFF" stroke="#7E7E7E" stroke-width="2" xlink:href="#ja" transform="translate(1 1)"/><g opacity=".21"><path fill="#1D1D1B" d="M38.428 23.65h2.395c-.019 2.792-1.459 4.376-4.412 4.376-2.917 0-4.41-1.35-4.41-3.781v-6.428C32 15.35 33.44 14 36.32 14c2.9 0 4.232 1.494 4.286 3.943h-2.394c-.054-1.206-.63-1.747-1.89-1.747-1.279 0-1.927.54-1.927 1.783v6.086c0 1.224.756 1.782 2.016 1.782 1.28 0 1.981-.702 2.017-2.196m9.702.252V14.18h2.395v10.065c0 2.43-1.603 3.78-4.232 3.78-2.628 0-4.231-1.35-4.231-3.78V14.18h2.377v9.723c0 1.404.612 1.944 1.854 1.944 1.207 0 1.837-.54 1.837-1.944m6.37 1.782h1.512c1.351 0 2.09-.684 2.09-1.818 0-1.189-.739-1.909-2.09-1.909H54.5v3.727zm1.44-9.309H54.5v3.386h1.387c1.206 0 1.872-.72 1.872-1.765 0-1.044-.666-1.62-1.819-1.62zm-3.817 11.488V14.18h4.051c2.611 0 3.98 1.458 3.98 3.547 0 1.62-.828 2.646-1.8 3.115 1.386.54 2.143 1.62 2.143 3.367 0 2.197-1.532 3.655-4.07 3.655h-4.303z"/><g transform="translate(61 14.026)"><mask id="jc" fill="#fff"><use xlink:href="#jb"/></mask><path fill="#1D1D1B" d="M.717.154h7.094v2.197H3.094v3.295h4.213v2.196H3.094v3.817h5.06v2.179H.717z" mask="url(#jc)"/></g></g></g></svg><svg width="120" height="63" viewBox="-4 -4 120 63" id="src--sprite--common--tab3_active" x="275" y="190" xmlns="http://www.w3.org/2000/svg"><defs><path id="ka" d="M0 0h106v48H0z"/><path id="kd" d="M.774.166h8.024V14.93H.774z"/><linearGradient id="kb" x1="12.36%" x2="92.356%" y1="39.747%" y2="60.945%"><stop offset="0%" stop-color="#FFBD72"/><stop offset="100%" stop-color="#FF683A"/></linearGradient></defs><g fill="none" fill-rule="evenodd"><path fill="#000" d="M56 55c46.396 0 56-1.397 56-5.5S86.928 44 56 44 0 44 0 49.5 9.604 55 56 55z" opacity=".143"/><g transform="translate(3 1)"><mask id="kc" fill="#fff"><use xlink:href="#ka"/></mask><use fill="url(#kb)" stroke="#000" stroke-width="2" xlink:href="#ka"/><path fill="#702222" d="M109.126-1.882c-5.155 3.333-8.273 7.314-9.352 11.942-1.62 6.94.71 29.94-7.607 31.94-4.345 1.045-28.82 1.802-51.91 2-21.115.181-41.086-.455-43.13 5.44C-7.154 61.783 98.612 61.294 102.37 59c3.756-2.294 8.606-4.44 8.681-7 .05-1.706 1.92-17.549 5.607-47.526L111.05-2l-1.925.118z" mask="url(#kc)" opacity=".11"/></g><path fill="#FEFEFE" d="M42.936 27.413h2.584c-.02 3.011-1.574 4.72-4.76 4.72-3.148 0-4.76-1.456-4.76-4.08v-6.934C36 18.456 37.554 17 40.662 17c3.128 0 4.566 1.612 4.625 4.254h-2.584c-.059-1.301-.68-1.885-2.04-1.885-1.38 0-2.079.584-2.079 1.924v6.566c0 1.321.816 1.923 2.175 1.923 1.38 0 2.138-.757 2.177-2.37m10.467.273v-10.49h2.584v10.859c0 2.623-1.73 4.08-4.566 4.08-2.835 0-4.565-1.457-4.565-4.08v-10.86h2.565v10.49c0 1.516.66 2.098 2 2.098 1.303 0 1.982-.582 1.982-2.097m6.874 1.923h1.631c1.458 0 2.254-.739 2.254-1.962 0-1.282-.796-2.06-2.254-2.06h-1.631v4.022zm1.553-10.044h-1.554v3.652h1.495c1.303 0 2.021-.776 2.021-1.903s-.718-1.749-1.962-1.749zm-4.119 12.394V17.194h4.371c2.817 0 4.293 1.574 4.293 3.828 0 1.748-.893 2.855-1.942 3.36 1.495.582 2.312 1.749 2.312 3.633 0 2.37-1.652 3.943-4.391 3.943h-4.643z"/><g transform="translate(67.29 17.028)"><mask id="ke" fill="#fff"><use xlink:href="#kd"/></mask><path fill="#FEFEFE" d="M.774.166h7.654v2.37H3.339v3.556h4.545v2.369H3.339v4.119h5.459v2.35H.774z" mask="url(#ke)"/></g></g></svg></svg>